# xmcd
#
# Track frame offsets:
#  150
#  870
#  12294
#  24550
#  28326
#  45606
#  62054
#  72950
#  89510
#  103030
#  119094
#  169238
#  181926
#  197846
#  218582
#  240054
#  267174
#  283606
#  293974
#
# Disc length: 3961 seconds
#
# Revision: 0
# Processed by: cddbd v1.5.1PL2 Copyright (c) Steve Scherf et al.
# Submitted via: Collectorz.com_Music_Collector 6.11
#
DISCID=0a0f7713
DTITLE=Todd Snider - Tin Angel, Philadelphia - 07/12/2001 (Early Show) [CD1)
DYEAR=2001
DGENRE=Alt Country
TTITLE0=Intro
TTITLE1=Vinyl Records
TTITLE2=Yesterdays And Used To Be's
TTITLE3=Todd's Intro
TTITLE4=D.B. Cooper
TTITLE5=Statistician's Blues
TTITLE6=Meeting Will
TTITLE7=Horseshoe Lake
TTITLE8=Rocket Fuel
TTITLE9=My Generation Pt. 2
TTITLE10=Moondawg's Tavern
TTITLE11=45 Miles
TTITLE12=Late Last Night
TTITLE13=Long Year
TTITLE14=Sideshow Blues
TTITLE15=Alright Guy
TTITLE16=Beer Run
TTITLE17=Travelin' Band
TTITLE18=Outtro
EXTD=
EXTT0=
EXTT1=
EXTT2=
EXTT3=
EXTT4=
EXTT5=
EXTT6=
EXTT7=
EXTT8=
EXTT9=
EXTT10=
EXTT11=
EXTT12=
EXTT13=
EXTT14=
EXTT15=
EXTT16=
EXTT17=
EXTT18=
PLAYORDER=
